# xmcd
#
# Track frame offsets:
#        150
#        18770
#        39572
#        56747
#        74547
#        91322
#        107570
#        125845
#        142647
#        161252
#        182020
#        199132
#        216937
#        233732
#        249867
#        268112
#        296327
#
# Disc length: 3963 seconds
#
# Revision: 0
# Processed by: cddbd v1.5.2PL0 Copyright (c) Steve Scherf et al.
# Submitted via: CDGFix 3.3h
#
DISCID=ec0f7911
DTITLE=Various Artist - Bellamy Bros
DYEAR=1900
DGENRE=Karaoke
TTITLE0=BELLAMY BROS - FOR ALL THE WRONG REASONS
TTITLE1=BELLAMY BROS - WHEN I'M AWAY FROM YOU
TTITLE2=BELLAMY BROS - LET YOUR LOVE FLOW
TTITLE3=BELLAMY BROS - REDNECK GIRL
TTITLE4=BELLAMY BROS - SUGAR DADDY
TTITLE5=BELLAMY BROS - DANCIN COWBOYS
TTITLE6=BELLAMY BROS - I NEED MORE OF YOU
TTITLE7=BELLAMY BROS - IF I SAID YOU HAVE A BEAUTIFUL BODY
TTITLE8=BELLAMY BROS - FOR ALL THE WRONG REASONS
TTITLE9=BELLAMY BROS - WHEN I'M AWAY FROM YOU
TTITLE10=BELLAMY BROS - LET YOUR LOVE FLOW
TTITLE11=BELLAMY BROS - REDNECK GIRL
TTITLE12=BELLAMY BROS - SUGAR DADDY
TTITLE13=BELLAMY BROS - DANCIN COWBOYS
TTITLE14=BELLAMY BROS - I NEED MORE OF YOU
TTITLE15=BELLAMY BROS - IF I SAID YOU HAVE A BEAUTIFUL BODY
TTITLE16=BELLAMY BROS - RUBBISH
EXTD=
EXTT0=
EXTT1=
EXTT2=
EXTT3=
EXTT4=
EXTT5=
EXTT6=
EXTT7=
EXTT8=
EXTT9=
EXTT10=
EXTT11=
EXTT12=
EXTT13=
EXTT14=
EXTT15=
EXTT16=
PLAYORDER=
